<?xml version="1.0" encoding="UTF-8"?>
<svg id="Layer_2" data-name="Layer 2" xmlns="http://www.w3.org/2000/svg" viewBox="0 0 109.79 109.79">
  <defs>
    <style>
      .cls-1 {
        fill: #fff;
      }

      .cls-2 {
        fill: #2a307b;
      }
    </style>
  </defs>
  <g id="Layer_1-2" data-name="Layer 1">
    <circle class="cls-2" cx="54.9" cy="54.9" r="54.9"/>
    <g>
      <path class="cls-1" d="m60.31,36.7c0,3.47-.55,6.65-1.65,9.55-1.1,2.9-2.65,5.39-4.65,7.48-2,2.09-4.41,3.71-7.22,4.86-2.81,1.15-5.92,1.73-9.32,1.73s-6.51-.58-9.31-1.73c-2.8-1.15-5.2-2.77-7.21-4.86-2-2.09-3.56-4.58-4.65-7.48-1.1-2.9-1.65-6.08-1.65-9.55s.55-6.65,1.65-9.55c1.1-2.9,2.65-5.4,4.65-7.5,2-2.1,4.41-3.73,7.21-4.9,2.8-1.16,5.9-1.75,9.31-1.75s6.51.58,9.32,1.75c2.81,1.16,5.22,2.8,7.22,4.9,2,2.1,3.56,4.6,4.65,7.5,1.1,2.9,1.65,6.08,1.65,9.55Zm-6.43,0c0-2.84-.39-5.4-1.16-7.66-.78-2.26-1.87-4.17-3.3-5.74-1.42-1.56-3.15-2.76-5.17-3.6-2.03-.84-4.29-1.26-6.79-1.26s-4.73.42-6.76,1.26c-2.03.84-3.75,2.04-5.19,3.6-1.43,1.56-2.54,3.47-3.31,5.74-.78,2.26-1.16,4.82-1.16,7.66s.39,5.39,1.16,7.64c.78,2.25,1.88,4.16,3.31,5.72,1.43,1.56,3.16,2.76,5.19,3.59,2.03.83,4.28,1.24,6.76,1.24s4.76-.41,6.79-1.24c2.03-.83,3.75-2.03,5.17-3.59,1.42-1.56,2.52-3.47,3.3-5.72.78-2.25,1.16-4.8,1.16-7.64Z"/>
      <path class="cls-1" d="m53.89,72.8c1.92,0,3.63-.32,5.14-.97,1.51-.65,2.78-1.55,3.83-2.72s1.84-2.55,2.39-4.17.82-3.39.82-5.33v-28.15h6.24v28.15c0,2.67-.43,5.15-1.28,7.43-.85,2.28-2.07,4.26-3.65,5.93-1.58,1.67-3.52,2.98-5.8,3.93-2.28.95-4.85,1.42-7.69,1.42s-5.41-.47-7.69-1.42c-2.28-.95-4.22-2.26-5.82-3.93-1.6-1.67-2.82-3.65-3.67-5.93-.85-2.28-1.28-4.76-1.28-7.43v-28.15h6.24v28.12c0,1.94.27,3.72.82,5.33.55,1.62,1.35,3.01,2.39,4.17,1.04,1.16,2.33,2.07,3.85,2.73,1.52.66,3.24.99,5.16.99Z"/>
      <path class="cls-1" d="m95.15,73.16c0,3.47-.55,6.65-1.65,9.55-1.1,2.9-2.65,5.39-4.65,7.48-2,2.09-4.41,3.71-7.22,4.86-2.81,1.15-5.92,1.73-9.32,1.73s-6.51-.58-9.31-1.73c-2.8-1.15-5.2-2.77-7.21-4.86-2-2.09-3.56-4.58-4.65-7.48-1.1-2.9-1.65-6.08-1.65-9.55s.55-6.65,1.65-9.55c1.1-2.9,2.65-5.4,4.65-7.5s4.41-3.73,7.21-4.9c2.8-1.16,5.9-1.75,9.31-1.75s6.51.58,9.32,1.75c2.81,1.16,5.22,2.8,7.22,4.9,2,2.1,3.56,4.6,4.65,7.5,1.1,2.9,1.65,6.08,1.65,9.55Zm-6.43,0c0-2.84-.39-5.4-1.16-7.66-.78-2.26-1.87-4.17-3.3-5.74-1.42-1.56-3.15-2.76-5.17-3.6s-4.29-1.26-6.79-1.26-4.73.42-6.76,1.26c-2.03.84-3.76,2.04-5.19,3.6-1.43,1.56-2.54,3.47-3.31,5.74-.78,2.26-1.16,4.82-1.16,7.66s.39,5.39,1.16,7.64c.78,2.25,1.88,4.16,3.31,5.72,1.43,1.56,3.16,2.76,5.19,3.59,2.03.83,4.28,1.24,6.76,1.24s4.76-.41,6.79-1.24c2.03-.83,3.75-2.03,5.17-3.59,1.42-1.56,2.52-3.47,3.3-5.72.78-2.25,1.16-4.8,1.16-7.64Z"/>
    </g>
  </g>
</svg>