<?xml version="1.0" encoding="UTF-8"?>
<svg id="Layer_2" xmlns="http://www.w3.org/2000/svg" viewBox="0 0 222.52 91">
  <defs>
    <style>
      .cls-1, .cls-2 {
        fill: #231f20;
      }

      .cls-2 {
        stroke: #231f20;
        stroke-miterlimit: 10;
      }
    </style>
  </defs>
  <g id="Layer_2-2" data-name="Layer_2">
    <g>
      <g>
        <path class="cls-1" d="M123.71,14.07c0,1.61-.25,3.09-.77,4.43-.51,1.35-1.23,2.5-2.16,3.47-.93.97-2.05,1.72-3.35,2.26-1.31.54-2.75.8-4.33.8s-3.02-.27-4.32-.8c-1.3-.53-2.42-1.29-3.35-2.26-.93-.97-1.65-2.13-2.16-3.47-.51-1.34-.76-2.82-.76-4.43s.25-3.09.76-4.43c.51-1.35,1.23-2.51,2.16-3.48.93-.98,2.04-1.73,3.35-2.27,1.3-.54,2.74-.81,4.32-.81s3.02.27,4.33.81c1.3.54,2.42,1.3,3.35,2.27.93.97,1.65,2.13,2.16,3.48.51,1.34.77,2.82.77,4.43ZM120.72,14.07c0-1.32-.18-2.5-.54-3.55-.36-1.05-.87-1.94-1.53-2.66-.66-.73-1.46-1.28-2.4-1.67-.94-.39-1.99-.58-3.15-.58s-2.2.19-3.13.58c-.94.39-1.74.95-2.41,1.67s-1.18,1.61-1.54,2.66c-.36,1.05-.54,2.23-.54,3.55s.18,2.5.54,3.55.87,1.93,1.54,2.65c.67.73,1.47,1.28,2.41,1.67.94.39,1.98.58,3.13.58s2.21-.19,3.15-.58c.94-.38,1.74-.94,2.4-1.67.66-.72,1.17-1.61,1.53-2.65.36-1.04.54-2.23.54-3.55Z"/>
        <path class="cls-1" d="M129.52,9.61v9.69c0,1.15.26,2.04.79,2.67.52.63,1.33.94,2.41.94.78,0,1.52-.18,2.21-.55.69-.37,1.33-.89,1.91-1.55v-11.2h2.67v15.19h-1.59c-.38,0-.62-.19-.72-.56l-.21-1.63c-.66.73-1.4,1.32-2.22,1.76-.82.45-1.76.67-2.82.67-.83,0-1.56-.14-2.2-.41s-1.17-.66-1.6-1.16c-.43-.5-.75-1.1-.97-1.81-.22-.71-.32-1.5-.32-2.35v-9.69h2.67Z"/>
        <path class="cls-1" d="M143.73,24.81v-15.19h1.53c.29,0,.49.05.6.17.11.11.18.3.23.57l.16,2.31c.48-1.04,1.07-1.85,1.78-2.44s1.56-.88,2.57-.88c.32,0,.63.04.92.1.29.07.56.18.79.33l-.2,1.99c-.06.25-.21.38-.45.38-.14,0-.34-.03-.61-.09-.27-.06-.58-.09-.92-.09-.48,0-.91.07-1.29.22-.38.15-.72.35-1.01.63-.29.28-.56.61-.79,1.01-.23.4-.44.86-.63,1.38v9.6h-2.68Z"/>
        <path class="cls-1" d="M112.14,53.5c.89,0,1.69-.15,2.38-.45.7-.3,1.29-.72,1.78-1.26.48-.54.85-1.19,1.11-1.94s.38-1.57.38-2.47v-13.06h2.89v13.06c0,1.24-.2,2.39-.59,3.45-.4,1.06-.96,1.98-1.7,2.75-.74.78-1.63,1.38-2.69,1.82-1.06.44-2.25.66-3.57.66s-2.51-.22-3.57-.66c-1.06-.44-1.96-1.05-2.7-1.82-.74-.77-1.31-1.69-1.7-2.75-.4-1.06-.59-2.21-.59-3.45v-13.06h2.9v13.05c0,.9.13,1.72.38,2.47s.62,1.39,1.11,1.93c.49.54,1.08.96,1.79,1.27.71.31,1.5.46,2.39.46Z"/>
        <path class="cls-1" d="M124.83,55.81v-15.19h1.6c.38,0,.62.19.71.55l.21,1.65c.66-.73,1.4-1.32,2.22-1.77.82-.45,1.76-.68,2.83-.68.83,0,1.56.14,2.2.41.63.27,1.16.67,1.59,1.17.42.5.75,1.11.97,1.82.22.71.33,1.49.33,2.35v9.67h-2.68v-9.67c0-1.15-.26-2.04-.79-2.68-.53-.63-1.32-.95-2.39-.95-.8,0-1.54.19-2.23.57-.69.38-1.31.9-1.88,1.54v11.19h-2.68Z"/>
        <path class="cls-1" d="M144.96,35.84c0,.26-.05.5-.16.73-.1.22-.25.42-.42.6-.17.18-.38.31-.62.41-.23.1-.48.15-.74.15s-.5-.05-.73-.15c-.22-.1-.42-.24-.59-.41-.17-.17-.3-.38-.4-.6-.1-.23-.15-.47-.15-.73s.05-.51.15-.74c.1-.23.23-.44.4-.61.17-.18.37-.31.59-.41s.47-.15.73-.15.51.05.74.15c.24.1.44.24.62.41.17.17.32.38.42.61.11.23.16.48.16.74ZM144.39,40.61v15.19h-2.67v-15.19h2.67Z"/>
        <path class="cls-1" d="M153.43,56.05c-1.2,0-2.12-.33-2.77-1-.65-.67-.97-1.63-.97-2.9v-9.3h-1.83c-.16,0-.29-.05-.41-.14-.11-.09-.17-.24-.17-.44v-1.06l2.49-.31.62-4.7c.03-.15.1-.27.2-.37.11-.1.24-.14.41-.14h1.35v5.23h4.39v1.94h-4.39v9.12c0,.64.16,1.12.46,1.42.31.31.71.46,1.2.46.28,0,.52-.04.73-.11s.38-.16.53-.25c.15-.09.28-.17.38-.25.1-.07.2-.11.28-.11.14,0,.26.08.38.25l.78,1.28c-.46.43-1.02.77-1.67,1.01-.65.24-1.32.37-2.01.37Z"/>
        <path class="cls-1" d="M165.75,40.37c.91,0,1.75.15,2.53.46.78.31,1.45.75,2.01,1.32.57.58,1.01,1.29,1.33,2.13.32.85.48,1.81.48,2.89,0,.42-.04.7-.13.84-.09.14-.26.21-.51.21h-10.16c.02.96.15,1.79.39,2.5.24.71.57,1.3.99,1.78.42.48.92.83,1.5,1.07s1.23.35,1.95.35c.67,0,1.25-.08,1.73-.23s.9-.32,1.25-.5c.35-.18.64-.35.88-.5s.44-.23.61-.23c.22,0,.39.08.51.25l.75.97c-.33.4-.72.75-1.18,1.04s-.95.54-1.48.73c-.53.19-1.07.33-1.63.43-.56.1-1.11.14-1.66.14-1.05,0-2.02-.18-2.9-.53-.88-.35-1.65-.88-2.29-1.56-.64-.69-1.15-1.53-1.51-2.54-.36-1.01-.54-2.17-.54-3.48,0-1.06.16-2.05.49-2.97.32-.92.79-1.72,1.4-2.39.61-.67,1.35-1.21,2.24-1.59.88-.38,1.87-.58,2.97-.58ZM165.81,42.34c-1.29,0-2.3.37-3.04,1.12-.74.75-1.2,1.78-1.38,3.1h8.31c0-.62-.09-1.19-.26-1.7s-.43-.96-.77-1.33-.74-.67-1.22-.87c-.48-.2-1.03-.31-1.64-.31Z"/>
        <path class="cls-1" d="M186.34,55.81c-.38,0-.62-.18-.72-.55l-.24-1.84c-.65.79-1.39,1.42-2.23,1.9-.83.47-1.79.71-2.87.71-.87,0-1.66-.17-2.37-.5s-1.32-.83-1.82-1.48-.88-1.46-1.16-2.43c-.27-.97-.4-2.08-.4-3.34,0-1.12.15-2.16.45-3.13.3-.96.73-1.8,1.29-2.51.56-.71,1.25-1.27,2.06-1.67.82-.41,1.73-.61,2.75-.61.93,0,1.73.16,2.39.47s1.26.76,1.78,1.33v-8.43h2.67v22.09h-1.59ZM181.15,53.86c.88,0,1.65-.2,2.3-.6.66-.4,1.26-.96,1.81-1.7v-7.33c-.5-.66-1.04-1.12-1.62-1.4s-1.23-.4-1.95-.4c-1.41,0-2.5.5-3.25,1.51-.76,1.01-1.14,2.45-1.14,4.32,0,.99.08,1.84.25,2.54s.42,1.29.75,1.74c.33.46.74.79,1.21,1,.48.21,1.03.31,1.63.31Z"/>
        <path class="cls-1" d="M123.71,76.07c0,1.61-.25,3.09-.77,4.43-.51,1.35-1.23,2.5-2.16,3.47-.93.97-2.05,1.72-3.35,2.26-1.31.54-2.75.8-4.33.8s-3.02-.27-4.32-.8c-1.3-.54-2.42-1.29-3.35-2.26-.93-.97-1.65-2.13-2.16-3.47-.51-1.34-.76-2.82-.76-4.43s.25-3.09.76-4.43c.51-1.35,1.23-2.51,2.16-3.48s2.04-1.73,3.35-2.27c1.3-.54,2.74-.81,4.32-.81s3.02.27,4.33.81c1.3.54,2.42,1.3,3.35,2.27.93.97,1.65,2.13,2.16,3.48.51,1.34.77,2.82.77,4.43ZM120.72,76.07c0-1.32-.18-2.5-.54-3.55-.36-1.05-.87-1.94-1.53-2.66-.66-.73-1.46-1.28-2.4-1.67-.94-.39-1.99-.58-3.15-.58s-2.2.2-3.13.58c-.94.39-1.74.95-2.41,1.67-.67.72-1.18,1.61-1.54,2.66s-.54,2.24-.54,3.55.18,2.5.54,3.55.87,1.93,1.54,2.66,1.47,1.28,2.41,1.67c.94.38,1.98.58,3.13.58s2.21-.19,3.15-.58c.94-.38,1.74-.94,2.4-1.67.66-.72,1.17-1.61,1.53-2.66.36-1.04.54-2.23.54-3.55Z"/>
        <path class="cls-1" d="M129.52,71.61v9.69c0,1.15.26,2.04.79,2.67.52.63,1.33.95,2.41.95.78,0,1.52-.18,2.21-.55.69-.37,1.33-.89,1.91-1.55v-11.2h2.67v15.19h-1.59c-.38,0-.62-.18-.72-.55l-.21-1.63c-.66.73-1.4,1.32-2.22,1.76-.82.45-1.76.67-2.82.67-.83,0-1.56-.14-2.2-.41-.63-.28-1.17-.66-1.6-1.16-.43-.5-.75-1.1-.97-1.81-.22-.71-.32-1.5-.32-2.36v-9.69h2.67Z"/>
        <path class="cls-1" d="M148.39,87.05c-1.2,0-2.12-.33-2.77-1-.64-.67-.97-1.63-.97-2.9v-9.3h-1.83c-.16,0-.29-.05-.4-.14-.11-.09-.17-.24-.17-.44v-1.06l2.49-.32.62-4.7c.03-.15.1-.27.2-.37.1-.09.24-.14.41-.14h1.35v5.24h4.4v1.93h-4.4v9.12c0,.64.16,1.12.47,1.42.31.31.71.46,1.2.46.28,0,.52-.04.73-.11s.38-.16.53-.25c.15-.09.28-.17.38-.25.11-.07.2-.11.28-.11.14,0,.27.08.38.25l.78,1.28c-.46.43-1.01.77-1.67,1.01-.65.24-1.32.37-2.01.37Z"/>
        <path class="cls-1" d="M154.48,86.81v-15.19h1.53c.29,0,.49.05.6.17.11.11.18.3.23.57l.16,2.31c.48-1.04,1.07-1.85,1.78-2.44s1.56-.88,2.57-.88c.32,0,.63.04.92.11.29.07.56.18.79.33l-.2,1.99c-.06.25-.21.38-.45.38-.14,0-.34-.03-.61-.09-.27-.06-.58-.09-.92-.09-.48,0-.91.07-1.29.22-.38.14-.72.35-1.01.63s-.56.61-.79,1.01c-.23.4-.44.86-.63,1.38v9.6h-2.68Z"/>
        <path class="cls-1" d="M171.02,71.37c.91,0,1.75.15,2.53.46.78.31,1.45.75,2.01,1.32.57.58,1.01,1.29,1.33,2.13.32.85.48,1.81.48,2.89,0,.42-.04.7-.13.84-.09.14-.26.21-.51.21h-10.16c.02.96.15,1.79.39,2.5.24.71.57,1.3.99,1.78.42.48.92.83,1.5,1.07s1.23.35,1.95.35c.67,0,1.25-.08,1.73-.23s.9-.32,1.25-.5c.35-.18.64-.35.88-.5s.44-.23.61-.23c.22,0,.39.08.51.25l.75.97c-.33.4-.72.75-1.18,1.04s-.95.54-1.48.73c-.53.19-1.07.33-1.63.43-.56.1-1.11.14-1.66.14-1.05,0-2.02-.18-2.9-.53-.88-.35-1.65-.88-2.29-1.56-.64-.69-1.15-1.53-1.51-2.54-.36-1.01-.54-2.17-.54-3.48,0-1.06.16-2.05.49-2.97.32-.92.79-1.72,1.4-2.39.61-.67,1.35-1.21,2.24-1.59.88-.38,1.87-.58,2.97-.58ZM171.07,73.34c-1.29,0-2.3.37-3.04,1.12-.74.75-1.2,1.78-1.38,3.1h8.31c0-.62-.09-1.19-.26-1.7-.17-.52-.43-.96-.77-1.33s-.74-.67-1.22-.87c-.48-.21-1.03-.31-1.64-.31Z"/>
        <path class="cls-1" d="M190.29,86.81c-.26,0-.46-.04-.6-.13-.14-.08-.25-.25-.33-.5l-.3-1.42c-.4.36-.79.68-1.18.97-.38.28-.79.52-1.2.72s-.86.34-1.33.45c-.47.1-1,.16-1.58.16s-1.15-.08-1.67-.25c-.52-.17-.97-.41-1.36-.74-.39-.33-.69-.75-.92-1.25-.23-.5-.34-1.1-.34-1.79,0-.6.17-1.18.5-1.73s.87-1.05,1.61-1.48c.74-.43,1.7-.78,2.89-1.06,1.19-.27,2.65-.43,4.38-.47v-1.18c0-1.18-.25-2.07-.76-2.68-.51-.6-1.25-.91-2.24-.91-.66,0-1.21.08-1.66.25-.45.17-.83.35-1.16.56s-.61.39-.84.55c-.24.17-.47.25-.7.25-.18,0-.33-.05-.46-.14-.13-.1-.24-.21-.33-.35l-.48-.86c.84-.81,1.75-1.42,2.71-1.82.97-.4,2.04-.6,3.23-.6.85,0,1.6.14,2.26.42.66.28,1.21.67,1.67,1.17s.79,1.11,1.02,1.82c.23.71.34,1.49.34,2.34v9.72h-1.19ZM184.56,85.17c.47,0,.9-.05,1.29-.14.39-.09.76-.23,1.1-.41.34-.17.67-.39.99-.64.31-.25.62-.54.92-.86v-3.15c-1.23.04-2.28.14-3.14.29-.87.15-1.57.36-2.12.61s-.94.54-1.18.88-.37.72-.37,1.14.06.75.19,1.04.31.53.53.71c.22.18.49.32.79.4.3.09.63.13.98.13Z"/>
        <path class="cls-1" d="M206.11,74.31c-.08.11-.16.2-.24.25-.08.06-.19.09-.33.09-.15,0-.32-.06-.5-.19-.18-.12-.4-.26-.67-.41-.26-.15-.59-.29-.97-.41s-.86-.19-1.42-.19c-.75,0-1.41.13-1.98.4-.57.26-1.05.65-1.43,1.15s-.67,1.11-.87,1.81c-.2.71-.29,1.51-.29,2.39s.1,1.74.31,2.45.51,1.32.89,1.8c.38.49.85.86,1.39,1.11s1.16.38,1.84.38,1.19-.08,1.61-.23c.42-.16.77-.33,1.04-.52.28-.19.5-.36.69-.52.18-.16.37-.23.55-.23.22,0,.39.08.51.25l.75.97c-.33.41-.71.76-1.12,1.05-.42.29-.87.53-1.36.73-.48.2-.99.34-1.52.43-.53.09-1.07.13-1.62.13-.95,0-1.83-.17-2.65-.52-.82-.35-1.52-.86-2.12-1.52s-1.07-1.48-1.41-2.45c-.34-.97-.51-2.07-.51-3.31,0-1.13.16-2.17.47-3.14.31-.96.77-1.79,1.38-2.48.6-.69,1.35-1.24,2.24-1.63.88-.39,1.9-.58,3.05-.58,1.07,0,2.01.17,2.83.52.81.34,1.54.83,2.17,1.46l-.71.96Z"/>
        <path class="cls-1" d="M209.86,86.81v-22.09h2.68v8.94c.65-.69,1.37-1.24,2.16-1.66s1.7-.62,2.73-.62c.83,0,1.56.14,2.2.41.63.28,1.17.67,1.59,1.17s.75,1.11.97,1.82.33,1.49.33,2.35v9.67h-2.69v-9.67c0-1.15-.26-2.04-.79-2.68-.53-.63-1.32-.95-2.39-.95-.8,0-1.54.19-2.23.57s-1.31.89-1.88,1.54v11.19h-2.68Z"/>
      </g>
      <line class="cls-2" x1="95.57" y1=".5" x2="95.57" y2="90.5"/>
      <g>
        <path class="cls-2" d="M29.54,26.3h5.11v18.83c.73-.16,1.44-.37,2.11-.64,1.66-.68,3.07-1.66,4.24-2.94,1.16-1.28,2.07-2.84,2.7-4.69.64-1.84.95-3.93.95-6.26s-.32-4.43-.95-6.28c-.64-1.85-1.53-3.42-2.7-4.7-1.16-1.28-2.58-2.26-4.24-2.95-1.66-.69-3.52-1.03-5.57-1.03s-3.88.34-5.54,1.03c-1.66.69-3.07,1.67-4.25,2.95-1.17,1.28-2.08,2.84-2.71,4.7-.64,1.85-.95,3.95-.95,6.28s.32,4.42.95,6.26c.64,1.84,1.54,3.41,2.71,4.69s2.59,2.26,4.25,2.94c1.2.49,2.49.79,3.88.93v-19.12Z"/>
        <path class="cls-2" d="M48.89,59.39c1.24-.53,2.28-1.27,3.14-2.23.86-.96,1.51-2.09,1.96-3.42.45-1.33.67-2.78.67-4.37v-2.98c-.14.05-.29.09-.43.15-1.66.69-3.08,1.67-4.25,2.95-1.17,1.28-2.08,2.84-2.71,4.7-.6,1.74-.9,3.71-.94,5.87.92-.12,1.78-.34,2.57-.68Z"/>
        <path class="cls-2" d="M45.5.5C20.65.5.5,20.65.5,45.5s20.15,45,45,45,45-20.15,45-45S70.35.5,45.5.5ZM77.14,68.3c-.9,2.38-2.17,4.42-3.81,6.13-1.64,1.71-3.61,3.04-5.92,3.98s-4.85,1.42-7.64,1.42-5.34-.48-7.63-1.42-4.26-2.27-5.91-3.98c-1.64-1.71-2.92-3.75-3.81-6.13-.47-1.23-.81-2.53-1.03-3.88-1.06-.19-2.07-.49-3.02-.88-1.87-.78-3.46-1.85-4.77-3.22-1.31-1.37-2.31-2.99-3.01-4.86-.64-1.72-.98-3.59-1.03-5.58-2.15-.15-4.15-.59-5.98-1.35-2.3-.94-4.26-2.27-5.91-3.98-1.64-1.71-2.92-3.75-3.81-6.13-.9-2.38-1.35-4.98-1.35-7.83s.45-5.45,1.35-7.83c.9-2.38,2.17-4.43,3.81-6.15,1.64-1.72,3.61-3.06,5.91-4.02,2.3-.95,4.84-1.43,7.63-1.43s5.34.48,7.64,1.43c2.3.95,4.28,2.3,5.92,4.02,1.64,1.72,2.92,3.77,3.81,6.15.9,2.38,1.35,4.98,1.35,7.83s-.45,5.45-1.35,7.83c-.9,2.38-2.17,4.42-3.81,6.13-1.64,1.71-3.61,3.04-5.92,3.98-1.31.54-2.71.9-4.19,1.14.03,1.46.24,2.82.66,4.04.45,1.33,1.11,2.47,1.96,3.42.85.95,1.91,1.7,3.16,2.24.21.09.44.17.66.24.08-2.51.51-4.83,1.32-6.96.9-2.38,2.17-4.43,3.81-6.15s3.61-3.06,5.91-4.02c.8-.33,1.65-.59,2.52-.81v-15.38h5.11v14.75c2.8,0,5.34.48,7.64,1.43,2.3.95,4.28,2.3,5.92,4.02,1.64,1.72,2.92,3.77,3.81,6.15.9,2.38,1.35,4.98,1.35,7.83s-.45,5.45-1.35,7.83Z"/>
        <path class="cls-2" d="M69.57,49.49c-1.16-1.28-2.58-2.26-4.24-2.95-1.65-.69-3.51-1.03-5.56-1.03v3.86c0,2.19-.35,4.22-1.05,6.09-.7,1.87-1.7,3.49-2.99,4.86s-2.89,2.44-4.75,3.22c-1.31.55-2.74.89-4.28,1.05.15.75.32,1.47.56,2.15.64,1.84,1.54,3.41,2.71,4.69s2.59,2.26,4.25,2.94c1.66.68,3.51,1.02,5.54,1.02s3.9-.34,5.57-1.02c1.66-.68,3.07-1.66,4.24-2.94s2.07-2.84,2.7-4.69c.64-1.84.95-3.93.95-6.26s-.32-4.43-.95-6.28c-.64-1.85-1.53-3.42-2.7-4.7Z"/>
      </g>
    </g>
  </g>
</svg>