<?xml version="1.0" encoding="UTF-8"?>
<svg id="Layer_2" data-name="Layer 2" xmlns="http://www.w3.org/2000/svg" viewBox="0 0 109.79 109.79">
  <defs>
    <style>
      .cls-1 {
        fill: #fff;
      }

      .cls-2 {
        fill: #2a307b;
      }
    </style>
  </defs>
  <g id="Layer_1-2" data-name="Layer 1">
    <g>
      <circle class="cls-2" cx="54.9" cy="54.9" r="54.9"/>
      <path class="cls-1" d="m39.61,55.76c0,2.39-.38,4.58-1.13,6.58-.76,2-1.82,3.71-3.21,5.15-1.38,1.44-3.04,2.56-4.97,3.35-1.94.79-4.08,1.19-6.42,1.19s-4.48-.4-6.41-1.19c-1.93-.79-3.58-1.91-4.96-3.35-1.38-1.44-2.45-3.16-3.2-5.15-.76-2-1.14-4.19-1.14-6.58s.38-4.58,1.14-6.58c.76-2,1.82-3.72,3.2-5.16,1.38-1.45,3.03-2.57,4.96-3.37,1.93-.8,4.06-1.2,6.41-1.2s4.48.4,6.42,1.2c1.94.8,3.59,1.93,4.97,3.37,1.38,1.45,2.45,3.17,3.21,5.16.76,2,1.13,4.19,1.13,6.58Zm-4.43,0c0-1.96-.27-3.72-.8-5.27-.53-1.56-1.29-2.87-2.27-3.95-.98-1.08-2.17-1.9-3.56-2.48-1.39-.58-2.95-.87-4.67-.87s-3.26.29-4.65.87c-1.39.58-2.59,1.41-3.57,2.48-.99,1.08-1.75,2.39-2.28,3.95-.53,1.56-.8,3.32-.8,5.27s.27,3.71.8,5.26c.53,1.55,1.29,2.86,2.28,3.94.99,1.08,2.18,1.9,3.57,2.47,1.39.57,2.95.86,4.65.86s3.28-.29,4.67-.86c1.39-.57,2.58-1.39,3.56-2.47.98-1.08,1.74-2.39,2.27-3.94.53-1.55.8-3.3.8-5.26Z"/>
      <path class="cls-1" d="m53.94,68.06c1.32,0,2.5-.22,3.54-.67,1.04-.45,1.92-1.07,2.64-1.87s1.27-1.76,1.65-2.87.57-2.34.57-3.67v-19.38h4.3v19.38c0,1.84-.29,3.55-.88,5.12-.59,1.57-1.42,2.93-2.51,4.08-1.09,1.15-2.42,2.05-3.99,2.7-1.57.65-3.34.98-5.3.98s-3.72-.33-5.3-.98c-1.57-.65-2.91-1.55-4.01-2.7-1.1-1.15-1.94-2.51-2.53-4.08-.59-1.57-.88-3.28-.88-5.12v-19.38h4.3v19.36c0,1.34.19,2.56.57,3.67.38,1.11.93,2.07,1.65,2.87.72.8,1.6,1.43,2.65,1.88,1.05.45,2.23.68,3.55.68Z"/>
      <path class="cls-1" d="m99.7,55.76c0,2.39-.38,4.58-1.13,6.58-.76,2-1.82,3.71-3.21,5.15-1.38,1.44-3.04,2.56-4.97,3.35-1.94.79-4.08,1.19-6.42,1.19s-4.48-.4-6.41-1.19c-1.93-.79-3.58-1.91-4.96-3.35-1.38-1.44-2.45-3.16-3.2-5.15-.76-2-1.14-4.19-1.14-6.58s.38-4.58,1.14-6.58c.76-2,1.82-3.72,3.2-5.16s3.03-2.57,4.96-3.37c1.93-.8,4.07-1.2,6.41-1.2s4.48.4,6.42,1.2c1.94.8,3.59,1.93,4.97,3.37,1.38,1.45,2.45,3.17,3.21,5.16.76,2,1.13,4.19,1.13,6.58Zm-4.43,0c0-1.96-.27-3.72-.8-5.27-.53-1.56-1.29-2.87-2.27-3.95-.98-1.08-2.17-1.9-3.56-2.48s-2.95-.87-4.67-.87-3.26.29-4.65.87c-1.39.58-2.59,1.41-3.57,2.48-.99,1.08-1.75,2.39-2.28,3.95-.53,1.56-.8,3.32-.8,5.27s.27,3.71.8,5.26c.53,1.55,1.29,2.86,2.28,3.94.99,1.08,2.18,1.9,3.57,2.47,1.39.57,2.94.86,4.65.86s3.28-.29,4.67-.86c1.39-.57,2.58-1.39,3.56-2.47.98-1.08,1.74-2.39,2.27-3.94.53-1.55.8-3.3.8-5.26Z"/>
    </g>
  </g>
</svg>