<?xml version="1.0" encoding="UTF-8"?>
<svg id="Layer_2" xmlns="http://www.w3.org/2000/svg" viewBox="0 0 788.3 1080">
  <defs>
    <style>
      .cls-1, .cls-2 {
        fill: #231f20;
      }

      .cls-3 {
        letter-spacing: 0em;
      }

      .cls-4 {
        letter-spacing: 0em;
      }

      .cls-5 {
        letter-spacing: 0em;
      }

      .cls-6 {
        letter-spacing: 0em;
      }

      .cls-7 {
        letter-spacing: -.01em;
      }

      .cls-8 {
        letter-spacing: -.01em;
      }

      .cls-9 {
        letter-spacing: .03em;
      }

      .cls-10 {
        letter-spacing: 0em;
      }

      .cls-11 {
        letter-spacing: 0em;
      }

      .cls-2 {
        font-family: MinionVariableConcept-Italic, 'Minion Variable Concept';
        font-size: 120.22px;
        font-style: italic;
        font-variation-settings: 'wght' 400, 'opsz' 11;
      }
    </style>
  </defs>
  <g id="Layer_1-2" data-name="Layer_1">
    <g>
      <g>
        <g>
          <path class="cls-1" d="M562.04,155.53c-1.99-1.66-3.96-3.3-5.75-4.8,23.81-23.62,47.23-46.86,71.01-70.46,1.13,1.36,2.95,3.55,4.74,5.7-23.19,23.04-46.6,46.3-70,69.56Z"/>
          <path class="cls-1" d="M223.76,150.89c-1.25,1.3-3.04,3.15-5.22,5.42-23.28-23.87-46.31-47.5-69.7-71.49,1.08-1.14,2.93-3.09,4.87-5.13,23.4,23.78,46.56,47.32,70.05,71.19Z"/>
          <path class="cls-1" d="M718.23,302.14v7.95h-97.86v-7.95h97.86Z"/>
          <path class="cls-1" d="M160.04,302.17v7.91H63.34v-7.91h96.7Z"/>
          <path class="cls-1" d="M386.27,0h7.88v81.37h-7.88V0Z"/>
          <path class="cls-1" d="M555.89,462.53c1.92-1.77,3.92-3.61,5.59-5.15,17.89,17.94,35.64,35.76,53.36,53.54h-10.46c-16.18-16.14-32.13-32.05-48.5-48.38Z"/>
          <path class="cls-1" d="M174.69,511.09h-9.21c18.09-17.58,36.04-35.03,53.99-52.48-.35-.56-.69-1.12-1.04-1.68,1.57,2.22,3.14,4.44,4.59,6.49-15.12,14.91-31.19,30.76-48.33,47.67Z"/>
          <path class="cls-1" d="M113.74,211.48c.82-2.58,1.37-4.31,2.1-6.62,20.68,8.02,41.18,15.98,62.01,24.06-.41,1.89-.78,3.59-1.28,5.92-20.98-7.8-41.69-15.5-62.83-23.36Z"/>
          <path class="cls-1" d="M664.86,205.45c.67,2.24,1.18,3.94,1.86,6.19-20.71,7.92-41.06,15.71-61.73,23.62-1.04-1.95-1.86-3.5-2.98-5.61,20.98-8.08,41.55-16,62.86-24.2Z"/>
          <path class="cls-1" d="M176.43,386.31c-20.49,8.37-40.05,16.36-60.09,24.55-.87-1.63-1.68-3.16-2.85-5.36,20.37-8.43,40.33-16.69,60.8-25.16.71,1.97,1.35,3.75,2.14,5.97Z"/>
          <path class="cls-1" d="M666.73,405.66c-1.05,1.97-1.72,3.23-2.75,5.17-19.89-8.19-39.66-16.34-59.79-24.63.66-2.07,1.19-3.77,1.98-6.26,20.16,8.56,40.02,17,60.56,25.72Z"/>
          <path class="cls-1" d="M275.52,53.1c1.99-1.27,3.5-2.23,5.6-3.57,6.55,16.96,12.96,33.53,19.53,50.53-1.84,1.08-3.34,1.96-5.45,3.2-6.6-16.82-13.01-33.18-19.67-50.16Z"/>
          <path class="cls-1" d="M499.31,49.88c1.98,1.31,3.48,2.3,5.46,3.62-6.54,16.42-12.99,32.61-19.67,49.36-1.8-.86-3.31-1.59-5.44-2.62,6.53-16.74,12.93-33.14,19.65-50.36Z"/>
        </g>
        <g>
          <path class="cls-1" d="M316.55,217.48h23.61v86.9c3.39-.75,6.67-1.69,9.76-2.95,7.68-3.14,14.19-7.68,19.56-13.58,5.37-5.9,9.53-13.13,12.48-21.64,2.95-8.51,4.39-18.16,4.39-28.9s-1.48-20.43-4.39-28.98c-2.95-8.55-7.07-15.78-12.48-21.72-5.37-5.9-11.92-10.44-19.56-13.62-7.68-3.18-16.23-4.77-25.69-4.77s-17.89,1.59-25.57,4.77c-7.68,3.18-14.19,7.72-19.63,13.62-5.41,5.9-9.61,13.13-12.52,21.72-2.95,8.55-4.39,18.23-4.39,28.98s1.48,20.39,4.39,28.9c2.95,8.51,7.11,15.74,12.52,21.64,5.41,5.9,11.95,10.44,19.63,13.58,5.52,2.26,11.5,3.66,17.89,4.29v-88.24Z"/>
          <path class="cls-1" d="M405.83,370.21c5.71-2.46,10.52-5.86,14.49-10.29,3.97-4.43,6.96-9.65,9.04-15.78,2.08-6.13,3.1-12.83,3.1-20.16v-13.76c-.66.25-1.35.44-2,.71-7.68,3.18-14.22,7.72-19.63,13.62-5.41,5.9-9.61,13.13-12.52,21.72-2.77,8.03-4.16,17.1-4.32,27.08,4.25-.56,8.22-1.57,11.85-3.13Z"/>
          <path class="cls-1" d="M390.21,98.42c-114.71,0-207.7,92.99-207.7,207.7s92.99,207.7,207.7,207.7,207.7-92.99,207.7-207.7-92.99-207.7-207.7-207.7ZM536.24,411.37c-4.16,10.97-10.03,20.39-17.59,28.3-7.57,7.91-16.68,14.04-27.31,18.39-10.63,4.35-22.4,6.54-35.26,6.54s-24.63-2.19-35.22-6.54c-10.59-4.35-19.67-10.48-27.28-18.39-7.57-7.91-13.47-17.33-17.59-28.3-2.16-5.68-3.73-11.67-4.77-17.92-4.91-.89-9.56-2.24-13.92-4.06-8.63-3.59-15.96-8.55-22.02-14.87-6.05-6.32-10.67-13.81-13.88-22.43-2.96-7.94-4.51-16.56-4.75-25.75-9.91-.71-19.14-2.74-27.6-6.21-10.59-4.35-19.67-10.48-27.28-18.39-7.57-7.91-13.47-17.33-17.59-28.3-4.16-10.97-6.24-23-6.24-36.13s2.08-25.16,6.24-36.13c4.16-10.97,10.03-20.43,17.59-28.37,7.57-7.94,16.68-14.11,27.28-18.54,10.59-4.39,22.32-6.62,35.22-6.62s24.63,2.19,35.26,6.62c10.63,4.39,19.75,10.59,27.31,18.54,7.57,7.94,13.47,17.4,17.59,28.37,4.16,10.97,6.24,23,6.24,36.13s-2.08,25.16-6.24,36.13c-4.16,10.97-10.03,20.39-17.59,28.3-7.57,7.91-16.68,14.04-27.31,18.39-6.06,2.48-12.53,4.18-19.32,5.25.13,6.75,1.11,13,3.05,18.66,2.08,6.13,5.11,11.39,9.04,15.78,3.93,4.39,8.81,7.83,14.57,10.33.98.43,2.01.76,3.04,1.12.39-11.57,2.35-22.3,6.08-32.14,4.16-10.97,10.03-20.43,17.59-28.37,7.57-7.94,16.68-14.11,27.28-18.54,3.71-1.54,7.62-2.71,11.61-3.72v-71h23.61v68.1c12.9,0,24.63,2.19,35.26,6.62,10.63,4.39,19.75,10.59,27.31,18.54,7.57,7.94,13.47,17.4,17.59,28.37,4.16,10.97,6.24,23,6.24,36.13s-2.08,25.16-6.24,36.13Z"/>
          <path class="cls-1" d="M501.28,324.54c-5.37-5.9-11.92-10.44-19.56-13.62-7.63-3.17-16.21-4.76-25.65-4.77v17.82c0,10.1-1.63,19.48-4.84,28.11-3.22,8.63-7.83,16.12-13.81,22.43-5.98,6.32-13.32,11.27-21.94,14.87-6.04,2.52-12.65,4.09-19.74,4.84.68,3.44,1.49,6.78,2.56,9.92,2.95,8.51,7.11,15.74,12.52,21.64,5.41,5.9,11.95,10.44,19.63,13.58,7.68,3.14,16.19,4.69,25.57,4.69s18.01-1.55,25.69-4.69c7.68-3.14,14.19-7.68,19.56-13.58,5.37-5.9,9.53-13.13,12.48-21.64,2.95-8.51,4.39-18.16,4.39-28.9s-1.48-20.43-4.39-28.98c-2.95-8.55-7.07-15.78-12.48-21.72Z"/>
        </g>
      </g>
      <g>
        <path class="cls-1" d="M4.16,630.76l16.15-2.38c1.82,15.9,7.77,23.85,17.86,23.85,5,0,8.93-1.63,11.79-4.88,2.86-3.25,4.29-7.28,4.29-12.09,0-2.83-.5-5.23-1.5-7.21-1-1.98-2.52-3.6-4.57-4.88-2.04-1.27-7-3.41-14.86-6.4-7.04-2.65-12.2-5.53-15.47-8.64-3.27-3.11-5.87-7.19-7.8-12.25-1.93-5.06-2.9-10.5-2.9-16.32,0-6.78,1.24-12.89,3.71-18.32,2.48-5.43,5.9-9.53,10.26-12.29,4.36-2.77,9.75-4.16,16.15-4.16,9.63,0,17.15,3.25,22.56,9.76,5.41,6.51,8.27,15.81,8.59,27.92l-16.56,1.1c-.73-6.67-2.29-11.34-4.7-14-2.41-2.66-5.84-3.99-10.29-3.99s-7.88,1.16-10.29,3.47c-2.41,2.31-3.61,5.19-3.61,8.63s1.09,6.23,3.28,8.54c2.19,2.31,7.21,4.86,15.07,7.63,8.31,3,14.32,6.16,18.02,9.46,3.7,3.31,6.53,7.58,8.48,12.81s2.93,11.58,2.93,19.05c0,10.8-2.67,19.88-8.01,27.24-5.34,7.35-13.69,11.03-25.05,11.03-20.08,0-31.26-14.23-33.53-42.69Z"/>
        <path class="cls-1" d="M84.71,671.33v-124.42h16.49v48.97h32.51v-48.97h16.49v124.42h-16.49v-54.4h-32.51v54.4h-16.49Z"/>
        <path class="cls-1" d="M241.19,671.33h-17.93l-7.17-28.18h-32.8l-6.77,28.18h-17.58l31.9-124.42h17.52l32.84,124.42ZM210.75,622.1l-11.31-46.17-11.1,46.17h22.41Z"/>
        <path class="cls-1" d="M249.91,671.33v-124.42h34.83c8.9,0,15.27,1.12,19.08,3.35,3.82,2.24,6.95,6.11,9.41,11.63,2.45,5.52,3.68,12.12,3.68,19.82,0,9.73-1.87,17.57-5.62,23.51-3.75,5.94-9.08,9.67-15.98,11.2,3.54,3.17,6.47,6.63,8.79,10.4,2.32,3.76,5.47,10.51,9.47,20.24l9.95,24.27h-19.73l-11.97-27.07c-4.31-9.79-7.23-15.91-8.78-18.37-1.55-2.46-3.18-4.16-4.91-5.09-1.73-.93-4.5-1.4-8.31-1.4h-3.41v51.94h-16.49ZM266.4,599.53h12.27c7.5,0,12.27-.41,14.31-1.23,2.04-.82,3.7-2.47,4.98-4.96,1.27-2.49,1.91-5.8,1.91-9.93s-.64-7.14-1.91-9.55c-1.27-2.4-3-4.06-5.18-4.96-1.55-.62-6.02-.93-13.43-.93h-12.95v31.57Z"/>
        <path class="cls-1" d="M331.96,671.33v-124.42h16.49v124.42h-16.49Z"/>
        <path class="cls-1" d="M364.47,671.33v-124.42h16.08l33.53,83.08v-83.08h15.4v124.42h-16.63l-32.98-81.13v81.13h-15.4Z"/>
        <path class="cls-1" d="M485.03,625.67v-21.05h35.64v49.56c-3.59,5.26-8.68,9.79-15.27,13.58s-13.2,5.69-19.83,5.69c-8.09,0-15.22-2.47-21.4-7.43-6.18-4.95-11.08-12.36-14.69-22.23-3.61-9.87-5.42-21.49-5.42-34.84s1.83-25.4,5.49-35.13c3.66-9.73,8.41-17,14.24-21.81,5.84-4.81,12.82-7.21,20.96-7.21,9.77,0,17.59,3.1,23.48,9.29,5.88,6.2,9.67,15.29,11.35,27.29l-16.36,4.67c-1.23-6.39-3.48-11.29-6.75-14.68-3.27-3.39-7.18-5.09-11.72-5.09-7.04,0-12.74,3.41-17.11,10.23-4.36,6.82-6.54,17.21-6.54,31.19,0,14.99,2.36,26.39,7.09,34.2,4.04,6.73,9.52,10.1,16.42,10.1,3.22,0,6.58-.94,10.05-2.83,3.48-1.89,6.58-4.47,9.3-7.74v-15.73h-18.95Z"/>
        <path class="cls-1" d="M586.23,671.33v-103.37h-24.33v-21.05h65.08v21.05h-24.26v103.37h-16.49Z"/>
        <path class="cls-1" d="M637.76,671.33v-124.42h16.49v48.97h32.51v-48.97h16.49v124.42h-16.49v-54.4h-32.51v54.4h-16.49Z"/>
        <path class="cls-1" d="M720.35,671.33v-124.42h60.79v21.05h-44.3v27.58h41.16v20.96h-41.16v33.78h45.8v21.05h-62.29Z"/>
        <path class="cls-1" d="M78.17,769v-21.05h35.64v49.56c-3.59,5.26-8.68,9.79-15.27,13.58-6.59,3.79-13.2,5.69-19.83,5.69-8.09,0-15.22-2.47-21.4-7.43-6.18-4.95-11.07-12.36-14.69-22.23-3.61-9.87-5.42-21.49-5.42-34.84s1.83-25.4,5.49-35.13c3.66-9.73,8.4-17,14.24-21.81,5.84-4.81,12.82-7.21,20.96-7.21,9.77,0,17.59,3.1,23.48,9.29,5.88,6.2,9.67,15.29,11.35,27.29l-16.36,4.67c-1.23-6.39-3.48-11.29-6.75-14.68-3.27-3.39-7.18-5.09-11.72-5.09-7.04,0-12.74,3.41-17.11,10.23-4.36,6.82-6.54,17.21-6.54,31.19,0,14.99,2.36,26.39,7.09,34.2,4.04,6.73,9.52,10.1,16.42,10.1,3.23,0,6.58-.94,10.05-2.83,3.48-1.89,6.58-4.47,9.3-7.74v-15.73h-18.95Z"/>
        <path class="cls-1" d="M125.74,753.21c0-14.82,1.76-27.03,5.28-36.62,3.52-9.59,8.12-16.73,13.8-21.43,5.68-4.7,12.56-7.04,20.65-7.04,11.72,0,21.27,5.57,28.66,16.72,7.38,11.15,11.07,27.02,11.07,47.61s-3.91,37.09-11.72,48.8c-6.86,10.35-16.18,15.53-27.94,15.53s-21.22-5.12-28.08-15.36c-7.81-11.71-11.72-27.78-11.72-48.21ZM142.78,752.37c0,14.32,2.18,25.05,6.55,32.21,4.37,7.16,9.78,10.74,16.24,10.74s11.9-3.55,16.18-10.65c4.28-7.1,6.42-18,6.42-32.72s-2.08-25.09-6.25-32c-4.16-6.9-9.61-10.35-16.35-10.35s-12.22,3.48-16.45,10.44c-4.23,6.96-6.35,17.74-6.35,32.33Z"/>
        <path class="cls-1" d="M214.81,753.21c0-14.82,1.76-27.03,5.28-36.62,3.52-9.59,8.12-16.73,13.8-21.43,5.68-4.7,12.56-7.04,20.65-7.04,11.72,0,21.27,5.57,28.66,16.72,7.38,11.15,11.07,27.02,11.07,47.61s-3.91,37.09-11.72,48.8c-6.86,10.35-16.18,15.53-27.94,15.53s-21.22-5.12-28.08-15.36c-7.81-11.71-11.72-27.78-11.72-48.21ZM231.85,752.37c0,14.32,2.18,25.05,6.55,32.21,4.37,7.16,9.78,10.74,16.24,10.74s11.9-3.55,16.18-10.65c4.28-7.1,6.42-18,6.42-32.72s-2.08-25.09-6.25-32c-4.16-6.9-9.61-10.35-16.35-10.35s-12.22,3.48-16.45,10.44c-4.23,6.96-6.35,17.74-6.35,32.33Z"/>
        <path class="cls-1" d="M307.16,690.24h30.16c7.62,0,13.38,1.06,17.26,3.18,3.88,2.12,7.46,5.7,10.72,10.74,3.27,5.04,5.83,11.57,7.69,19.6,1.86,8.03,2.79,18.02,2.79,29.96,0,10.75-.98,20.1-2.93,28.05-1.95,7.95-4.43,14.24-7.42,18.88-3,4.64-6.62,8.13-10.86,10.48-4.24,2.35-9.7,3.52-16.37,3.52h-31.05v-124.42ZM323.65,711.29v82.32h12.4c5.32,0,9.17-.62,11.55-1.86,2.39-1.24,4.34-3.12,5.86-5.64,1.52-2.51,2.78-6.49,3.78-11.91,1-5.43,1.5-12.58,1.5-21.45s-.51-16.47-1.53-21.79c-1.02-5.31-2.61-9.49-4.77-12.55-2.16-3.05-4.78-5.06-7.87-6.02-2.32-.73-6.79-1.1-13.43-1.1h-7.5Z"/>
        <path class="cls-1" d="M421.85,814.66v-124.42h16.08l33.53,83.08v-83.08h15.4v124.42h-16.63l-32.99-81.13v81.13h-15.4Z"/>
        <path class="cls-1" d="M504.32,814.66v-124.42h60.79v21.05h-44.3v27.58h41.16v20.96h-41.16v33.78h45.8v21.05h-62.29Z"/>
        <path class="cls-1" d="M592.24,814.66l-19.63-124.42h16.97l12.3,85.5,14.97-85.5h19.71l14.38,86.95,12.64-86.95h16.63l-19.9,124.42h-17.61l-16.37-93.06-16.22,93.06h-17.88Z"/>
        <path class="cls-1" d="M684.44,774.09l16.15-2.38c1.82,15.9,7.77,23.85,17.86,23.85,5,0,8.93-1.63,11.79-4.88,2.86-3.25,4.29-7.28,4.29-12.09,0-2.83-.5-5.23-1.5-7.21-1-1.98-2.52-3.6-4.57-4.88-2.04-1.27-7-3.41-14.86-6.4-7.04-2.65-12.2-5.53-15.47-8.64-3.27-3.11-5.87-7.19-7.8-12.25-1.93-5.06-2.9-10.5-2.9-16.32,0-6.78,1.24-12.89,3.71-18.32,2.48-5.43,5.89-9.53,10.26-12.29,4.36-2.77,9.75-4.16,16.15-4.16,9.63,0,17.15,3.25,22.56,9.76,5.41,6.51,8.27,15.81,8.59,27.92l-16.56,1.1c-.73-6.67-2.29-11.34-4.7-14-2.41-2.66-5.84-3.99-10.29-3.99s-7.88,1.16-10.29,3.47c-2.41,2.31-3.61,5.19-3.61,8.63s1.09,6.23,3.28,8.54,7.21,4.86,15.07,7.63c8.31,3,14.32,6.16,18.02,9.46,3.7,3.31,6.53,7.58,8.48,12.81,1.95,5.23,2.93,11.58,2.93,19.05,0,10.8-2.67,19.88-8.01,27.24s-13.69,11.03-25.04,11.03c-20.08,0-31.26-14.23-33.53-42.69Z"/>
      </g>
      <text class="cls-2" transform="translate(72.22 920.77) scale(.93 1)"><tspan x="0" y="0">of </tspan><tspan class="cls-8" x="118.41" y="0">J</tspan><tspan class="cls-5" x="155.67" y="0">e</tspan><tspan class="cls-6" x="205.2" y="0">s</tspan><tspan x="244.03" y="0">us Ch</tspan><tspan class="cls-9" x="514.87" y="0">r</tspan><tspan class="cls-4" x="562.48" y="0">i</tspan><tspan class="cls-7" x="596.49" y="0">s</tspan><tspan x="634.96" y="0">t </tspan><tspan x="138.78" y="115.59">t</tspan><tspan class="cls-3" x="174.85" y="115.59">og</tspan><tspan class="cls-11" x="284.36" y="115.59">e</tspan><tspan class="cls-10" x="332.57" y="115.59">t</tspan><tspan x="367.67" y="115.59">he</tspan><tspan class="cls-3" x="479.35" y="115.59">r</tspan><tspan x="524.55" y="115.59">!</tspan></text>
    </g>
  </g>
</svg>