<?xml version="1.0" encoding="UTF-8"?>
<svg id="Layer_1" xmlns="http://www.w3.org/2000/svg" xmlns:xlink="http://www.w3.org/1999/xlink" viewBox="0 0 485.18 485.18">
  <defs>
    <style>
      .cls-1 {
        letter-spacing: -.01em;
      }

      .cls-2 {
        letter-spacing: 0em;
      }

      .cls-3 {
        letter-spacing: 0em;
      }

      .cls-4 {
        fill: #3a53a4;
      }

      .cls-5, .cls-6 {
        fill: #fff;
      }

      .cls-7 {
        letter-spacing: -.01em;
      }

      .cls-6 {
        font-family: MinionVariableConcept-Italic, 'Minion Variable Concept';
        font-size: 51.33px;
        font-style: italic;
        font-variation-settings: 'wght' 400, 'opsz' 11;
      }

      .cls-8 {
        fill: none;
      }

      .cls-9 {
        letter-spacing: .03em;
      }

      .cls-10 {
        letter-spacing: 0em;
      }

      .cls-11 {
        letter-spacing: 0em;
      }

      .cls-12 {
        clip-path: url(#clippath);
      }

      .cls-13 {
        letter-spacing: 0em;
      }

      .cls-14 {
        letter-spacing: 0em;
      }
    </style>
    <clipPath id="clippath">
      <rect class="cls-8" width="485.18" height="485.18"/>
    </clipPath>
  </defs>
  <g class="cls-12">
    <rect class="cls-4" x="-8.18" y="-4.23" width="513.22" height="513.22"/>
    <g>
      <g>
        <path class="cls-5" d="M318.27,91.18c-.85-.71-1.69-1.41-2.46-2.05,10.17-10.09,20.16-20.01,30.32-30.08.48.58,1.26,1.51,2.03,2.43-9.9,9.84-19.9,19.77-29.89,29.7Z"/>
        <path class="cls-5" d="M173.83,89.2c-.53.55-1.3,1.35-2.23,2.32-9.94-10.19-19.77-20.28-29.76-30.52.46-.49,1.25-1.32,2.08-2.19,9.99,10.15,19.88,20.2,29.91,30.4Z"/>
        <path class="cls-5" d="M384.96,153.78v3.4h-41.79v-3.4h41.79Z"/>
        <path class="cls-5" d="M146.62,153.79v3.38h-41.29v-3.38h41.29Z"/>
        <path class="cls-5" d="M243.22,24.77h3.36v34.74h-3.36V24.77Z"/>
        <path class="cls-5" d="M315.64,222.26c.82-.75,1.67-1.54,2.39-2.2,7.64,7.66,15.22,15.27,22.79,22.86h-4.46c-6.91-6.89-13.72-13.68-20.71-20.66Z"/>
        <path class="cls-5" d="M152.88,243h-3.93c7.72-7.51,15.39-14.96,23.05-22.41-.15-.24-.3-.48-.44-.72.67.95,1.34,1.89,1.96,2.77-6.46,6.37-13.32,13.13-20.63,20.35Z"/>
        <path class="cls-5" d="M126.85,115.07c.35-1.1.58-1.84.9-2.83,8.83,3.43,17.58,6.82,26.48,10.27-.17.81-.33,1.53-.55,2.53-8.96-3.33-17.8-6.62-26.83-9.97Z"/>
        <path class="cls-5" d="M362.17,112.49c.29.96.5,1.68.79,2.64-8.84,3.38-17.53,6.71-26.36,10.08-.44-.83-.79-1.49-1.27-2.39,8.96-3.45,17.74-6.83,26.84-10.33Z"/>
        <path class="cls-5" d="M153.62,189.72c-8.75,3.57-17.1,6.98-25.66,10.48-.37-.7-.72-1.35-1.22-2.29,8.7-3.6,17.22-7.12,25.96-10.74.3.84.57,1.6.91,2.55Z"/>
        <path class="cls-5" d="M362.97,197.98c-.45.84-.73,1.38-1.17,2.21-8.49-3.5-16.94-6.98-25.53-10.52.28-.88.51-1.61.85-2.67,8.61,3.66,17.09,7.26,25.86,10.98Z"/>
        <path class="cls-5" d="M195.93,47.45c.85-.54,1.49-.95,2.39-1.52,2.8,7.24,5.53,14.32,8.34,21.58-.79.46-1.43.84-2.33,1.37-2.82-7.18-5.56-14.17-8.4-21.42Z"/>
        <path class="cls-5" d="M291.48,46.07c.85.56,1.49.98,2.33,1.54-2.79,7.01-5.55,13.92-8.4,21.08-.77-.37-1.41-.68-2.32-1.12,2.79-7.15,5.52-14.15,8.39-21.5Z"/>
      </g>
      <g>
        <path class="cls-5" d="M213.45,117.63h10.08v37.1c1.45-.32,2.85-.72,4.17-1.26,3.28-1.34,6.06-3.28,8.35-5.8,2.29-2.52,4.07-5.61,5.33-9.24,1.26-3.63,1.87-7.75,1.87-12.34s-.63-8.72-1.87-12.37c-1.26-3.65-3.02-6.74-5.33-9.27-2.29-2.52-5.09-4.46-8.35-5.82-3.28-1.36-6.93-2.04-10.97-2.04s-7.64.68-10.92,2.04c-3.28,1.36-6.06,3.3-8.38,5.82-2.31,2.52-4.1,5.61-5.35,9.27-1.26,3.65-1.87,7.79-1.87,12.37s.63,8.71,1.87,12.34c1.26,3.63,3.04,6.72,5.35,9.24s5.1,4.46,8.38,5.8c2.36.96,4.91,1.56,7.64,1.83v-37.68Z"/>
        <path class="cls-5" d="M251.57,182.84c2.44-1.05,4.49-2.5,6.19-4.39,1.7-1.89,2.97-4.12,3.86-6.74.89-2.62,1.32-5.48,1.32-8.61v-5.88c-.28.11-.58.19-.86.3-3.28,1.36-6.07,3.3-8.38,5.82-2.31,2.52-4.1,5.61-5.35,9.27-1.18,3.43-1.78,7.3-1.85,11.56,1.81-.24,3.51-.67,5.06-1.34Z"/>
        <path class="cls-5" d="M244.9,66.8c-48.98,0-88.68,39.7-88.68,88.68s39.7,88.68,88.68,88.68,88.68-39.7,88.68-88.68-39.7-88.68-88.68-88.68ZM307.25,200.42c-1.78,4.68-4.28,8.71-7.51,12.08-3.23,3.38-7.12,5.99-11.66,7.85s-9.56,2.79-15.05,2.79-10.52-.94-15.04-2.79-8.4-4.47-11.65-7.85c-3.23-3.38-5.75-7.4-7.51-12.08-.92-2.43-1.59-4.98-2.04-7.65-2.1-.38-4.08-.96-5.94-1.73-3.68-1.53-6.82-3.65-9.4-6.35-2.58-2.7-4.56-5.9-5.93-9.58-1.26-3.39-1.93-7.07-2.03-11-4.23-.3-8.17-1.17-11.78-2.65-4.52-1.86-8.4-4.47-11.65-7.85-3.23-3.38-5.75-7.4-7.51-12.08-1.78-4.68-2.67-9.82-2.67-15.43s.89-10.74,2.67-15.43c1.78-4.68,4.28-8.72,7.51-12.11,3.23-3.39,7.12-6.03,11.65-7.92,4.52-1.87,9.53-2.83,15.04-2.83s10.52.94,15.05,2.83c4.54,1.87,8.43,4.52,11.66,7.92,3.23,3.39,5.75,7.43,7.51,12.11,1.78,4.68,2.67,9.82,2.67,15.43s-.89,10.74-2.67,15.43c-1.78,4.68-4.28,8.71-7.51,12.08-3.23,3.38-7.12,5.99-11.66,7.85-2.59,1.06-5.35,1.78-8.25,2.24.06,2.88.48,5.55,1.3,7.97.89,2.62,2.18,4.86,3.86,6.74,1.68,1.87,3.76,3.34,6.22,4.41.42.18.86.33,1.3.48.16-4.94,1-9.52,2.6-13.72,1.78-4.68,4.28-8.72,7.51-12.11,3.23-3.39,7.12-6.03,11.65-7.92,1.59-.66,3.25-1.16,4.96-1.59v-30.31h10.08v29.08c5.51,0,10.52.94,15.05,2.83,4.54,1.87,8.43,4.52,11.66,7.92,3.23,3.39,5.75,7.43,7.51,12.11,1.78,4.68,2.67,9.82,2.67,15.43s-.89,10.74-2.67,15.43Z"/>
        <path class="cls-5" d="M292.33,163.34c-2.29-2.52-5.09-4.46-8.35-5.82-3.26-1.35-6.92-2.03-10.95-2.03v7.61c0,4.31-.69,8.32-2.07,12-1.37,3.68-3.34,6.88-5.9,9.58-2.55,2.7-5.69,4.81-9.37,6.35-2.58,1.07-5.4,1.75-8.43,2.07.29,1.47.64,2.9,1.09,4.23,1.26,3.63,3.04,6.72,5.35,9.24s5.1,4.46,8.38,5.8c3.28,1.34,6.91,2,10.92,2s7.69-.66,10.97-2c3.28-1.34,6.06-3.28,8.35-5.8s4.07-5.61,5.33-9.24c1.26-3.63,1.87-7.75,1.87-12.34s-.63-8.72-1.87-12.37c-1.26-3.65-3.02-6.74-5.33-9.27Z"/>
      </g>
    </g>
    <g>
      <path class="cls-5" d="M80.07,294.09l6.9-1.01c.78,6.79,3.32,10.18,7.62,10.18,2.13,0,3.81-.69,5.03-2.08,1.22-1.39,1.83-3.11,1.83-5.16,0-1.21-.21-2.23-.64-3.08-.43-.84-1.08-1.54-1.95-2.08-.87-.54-2.99-1.45-6.34-2.73-3.01-1.13-5.21-2.36-6.6-3.69-1.4-1.33-2.51-3.07-3.33-5.23-.82-2.16-1.24-4.48-1.24-6.97,0-2.9.53-5.5,1.59-7.82,1.06-2.32,2.52-4.07,4.38-5.25s4.16-1.77,6.9-1.77c4.11,0,7.32,1.39,9.63,4.17,2.31,2.78,3.53,6.75,3.67,11.92l-7.07.47c-.31-2.85-.98-4.84-2.01-5.98-1.03-1.13-2.49-1.7-4.39-1.7s-3.37.49-4.39,1.48c-1.03.99-1.54,2.22-1.54,3.68s.47,2.66,1.4,3.65,3.08,2.07,6.43,3.26c3.55,1.28,6.11,2.63,7.69,4.04s2.79,3.24,3.62,5.47,1.25,4.95,1.25,8.13c0,4.61-1.14,8.49-3.42,11.63-2.28,3.14-5.84,4.71-10.69,4.71-8.57,0-13.35-6.08-14.32-18.23Z"/>
      <path class="cls-5" d="M114.46,311.41v-53.12h7.04v20.91h13.88v-20.91h7.04v53.12h-7.04v-23.23h-13.88v23.23h-7.04Z"/>
      <path class="cls-5" d="M181.27,311.41h-7.66l-3.06-12.03h-14l-2.89,12.03h-7.51l13.62-53.12h7.48l14.02,53.12ZM168.28,290.4l-4.83-19.71-4.74,19.71h9.57Z"/>
      <path class="cls-5" d="M185,311.41v-53.12h14.87c3.8,0,6.52.48,8.15,1.43,1.63.96,2.97,2.61,4.02,4.96,1.05,2.36,1.57,5.18,1.57,8.46,0,4.16-.8,7.5-2.4,10.04-1.6,2.54-3.88,4.13-6.82,4.78,1.51,1.35,2.76,2.83,3.75,4.44s2.34,4.49,4.04,8.64l4.25,10.36h-8.43l-5.11-11.56c-1.84-4.18-3.09-6.79-3.75-7.84s-1.36-1.78-2.09-2.17c-.74-.4-1.92-.6-3.55-.6h-1.46v22.18h-7.04ZM192.04,280.76h5.24c3.2,0,5.24-.17,6.11-.53.87-.35,1.58-1.06,2.12-2.12s.81-2.48.81-4.24-.27-3.05-.81-4.08c-.54-1.03-1.28-1.73-2.21-2.12-.66-.27-2.57-.4-5.73-.4h-5.53v13.48Z"/>
      <path class="cls-5" d="M220.03,311.41v-53.12h7.04v53.12h-7.04Z"/>
      <path class="cls-5" d="M233.91,311.41v-53.12h6.87l14.32,35.47v-35.47h6.58v53.12h-7.1l-14.08-34.64v34.64h-6.58Z"/>
      <path class="cls-5" d="M285.39,291.92v-8.99h15.22v21.16c-1.53,2.25-3.71,4.18-6.52,5.8-2.81,1.62-5.64,2.43-8.47,2.43-3.45,0-6.5-1.06-9.14-3.17-2.64-2.11-4.73-5.28-6.27-9.49-1.54-4.21-2.31-9.17-2.31-14.88s.78-10.85,2.34-15c1.56-4.15,3.59-7.26,6.08-9.31,2.49-2.05,5.47-3.08,8.95-3.08,4.17,0,7.51,1.32,10.02,3.97,2.51,2.65,4.13,6.53,4.85,11.65l-6.98,1.99c-.52-2.73-1.48-4.82-2.88-6.27-1.4-1.45-3.06-2.17-5-2.17-3.01,0-5.44,1.46-7.3,4.37-1.86,2.91-2.79,7.35-2.79,13.32,0,6.4,1.01,11.27,3.03,14.6,1.73,2.88,4.06,4.31,7.01,4.31,1.38,0,2.81-.4,4.29-1.21,1.48-.81,2.81-1.91,3.97-3.3v-6.72h-8.09Z"/>
      <path class="cls-5" d="M328.6,311.41v-44.14h-10.39v-8.99h27.79v8.99h-10.36v44.14h-7.04Z"/>
      <path class="cls-5" d="M350.6,311.41v-53.12h7.04v20.91h13.88v-20.91h7.04v53.12h-7.04v-23.23h-13.88v23.23h-7.04Z"/>
      <path class="cls-5" d="M385.86,311.41v-53.12h25.96v8.99h-18.91v11.78h17.58v8.95h-17.58v14.42h19.55v8.99h-26.6Z"/>
      <path class="cls-5" d="M111.67,353.12v-8.99h15.22v21.16c-1.53,2.25-3.71,4.18-6.52,5.8-2.81,1.62-5.64,2.43-8.47,2.43-3.45,0-6.5-1.06-9.14-3.17-2.64-2.11-4.73-5.28-6.27-9.49-1.54-4.21-2.31-9.17-2.31-14.88s.78-10.85,2.34-15c1.56-4.15,3.59-7.26,6.08-9.31,2.49-2.05,5.48-3.08,8.95-3.08,4.17,0,7.51,1.32,10.02,3.97,2.51,2.65,4.13,6.53,4.84,11.65l-6.98,1.99c-.52-2.73-1.48-4.82-2.88-6.27-1.4-1.45-3.07-2.17-5-2.17-3.01,0-5.44,1.46-7.3,4.37-1.86,2.91-2.79,7.35-2.79,13.32,0,6.4,1.01,11.27,3.03,14.6,1.73,2.88,4.06,4.31,7.01,4.31,1.38,0,2.81-.4,4.29-1.21,1.48-.81,2.81-1.91,3.97-3.3v-6.72h-8.09Z"/>
      <path class="cls-5" d="M131.98,346.38c0-6.33.75-11.54,2.25-15.64,1.5-4.09,3.47-7.14,5.89-9.15,2.42-2,5.36-3.01,8.82-3.01,5,0,9.08,2.38,12.24,7.14,3.15,4.76,4.73,11.54,4.73,20.33s-1.67,15.84-5.01,20.84c-2.93,4.42-6.91,6.63-11.93,6.63s-9.06-2.19-11.99-6.56c-3.34-5-5-11.86-5-20.58ZM139.25,346.01c0,6.11.93,10.7,2.8,13.75,1.87,3.06,4.18,4.58,6.94,4.58s5.08-1.52,6.91-4.55c1.83-3.03,2.74-7.69,2.74-13.97s-.89-10.71-2.67-13.66c-1.78-2.95-4.1-4.42-6.98-4.42s-5.22,1.49-7.02,4.46-2.71,7.57-2.71,13.81Z"/>
      <path class="cls-5" d="M170.01,346.38c0-6.33.75-11.54,2.25-15.64,1.5-4.09,3.47-7.14,5.89-9.15,2.42-2,5.36-3.01,8.82-3.01,5,0,9.08,2.38,12.24,7.14,3.15,4.76,4.73,11.54,4.73,20.33s-1.67,15.84-5.01,20.84c-2.93,4.42-6.91,6.63-11.93,6.63s-9.06-2.19-11.99-6.56c-3.34-5-5-11.86-5-20.58ZM177.28,346.01c0,6.11.93,10.7,2.8,13.75,1.87,3.06,4.18,4.58,6.94,4.58s5.08-1.52,6.91-4.55c1.83-3.03,2.74-7.69,2.74-13.97s-.89-10.71-2.67-13.66c-1.78-2.95-4.1-4.42-6.98-4.42s-5.22,1.49-7.02,4.46-2.71,7.57-2.71,13.81Z"/>
      <path class="cls-5" d="M209.44,319.49h12.88c3.26,0,5.71.45,7.37,1.36,1.66.91,3.18,2.43,4.58,4.58,1.4,2.15,2.49,4.94,3.29,8.37.79,3.43,1.19,7.69,1.19,12.79,0,4.59-.42,8.58-1.25,11.98-.83,3.39-1.89,6.08-3.17,8.06-1.28,1.98-2.82,3.47-4.64,4.47-1.81,1-4.14,1.5-6.99,1.5h-13.26v-53.12ZM216.48,328.48v35.15h5.3c2.27,0,3.91-.27,4.93-.8,1.02-.53,1.85-1.33,2.5-2.41.65-1.07,1.19-2.77,1.61-5.09.43-2.32.64-5.37.64-9.16s-.22-7.03-.66-9.3-1.12-4.05-2.04-5.36c-.92-1.3-2.04-2.16-3.36-2.57-.99-.31-2.9-.47-5.73-.47h-3.2Z"/>
      <path class="cls-5" d="M258.41,372.61v-53.12h6.87l14.32,35.47v-35.47h6.58v53.12h-7.1l-14.08-34.64v34.64h-6.58Z"/>
      <path class="cls-5" d="M293.62,372.61v-53.12h25.96v8.99h-18.91v11.78h17.58v8.95h-17.58v14.42h19.55v8.99h-26.6Z"/>
      <path class="cls-5" d="M331.16,372.61l-8.38-53.12h7.25l5.25,36.51,6.39-36.51h8.42l6.14,37.12,5.4-37.12h7.1l-8.5,53.12h-7.52l-6.99-39.73-6.93,39.73h-7.63Z"/>
      <path class="cls-5" d="M370.53,355.29l6.9-1.01c.78,6.79,3.32,10.18,7.62,10.18,2.13,0,3.81-.69,5.03-2.08,1.22-1.39,1.83-3.11,1.83-5.16,0-1.21-.21-2.23-.64-3.08s-1.08-1.54-1.95-2.08c-.87-.54-2.99-1.45-6.34-2.73-3.01-1.13-5.21-2.36-6.61-3.69s-2.51-3.07-3.33-5.23c-.82-2.16-1.24-4.48-1.24-6.97,0-2.9.53-5.5,1.59-7.82,1.06-2.32,2.52-4.07,4.38-5.25s4.16-1.77,6.9-1.77c4.11,0,7.32,1.39,9.63,4.17,2.31,2.78,3.53,6.75,3.67,11.92l-7.07.47c-.31-2.85-.98-4.84-2.01-5.98-1.03-1.13-2.49-1.7-4.39-1.7s-3.37.49-4.39,1.48-1.54,2.22-1.54,3.68.47,2.66,1.4,3.65c.93.99,3.08,2.07,6.43,3.26,3.55,1.28,6.11,2.63,7.69,4.04s2.79,3.24,3.62,5.47c.83,2.23,1.25,4.95,1.25,8.13,0,4.61-1.14,8.49-3.42,11.63s-5.84,4.71-10.69,4.71c-8.58,0-13.35-6.08-14.32-18.23Z"/>
    </g>
    <text class="cls-6" transform="translate(109.13 417.92) scale(.93 1)"><tspan x="0" y="0">of </tspan><tspan class="cls-1" x="50.56" y="0">J</tspan><tspan class="cls-2" x="66.47" y="0">e</tspan><tspan class="cls-10" x="87.62" y="0">s</tspan><tspan x="104.2" y="0">us Ch</tspan><tspan class="cls-9" x="219.84" y="0">r</tspan><tspan class="cls-3" x="240.16" y="0">i</tspan><tspan class="cls-7" x="254.69" y="0">s</tspan><tspan x="271.11" y="0">t </tspan><tspan x="59.26" y="49.35">t</tspan><tspan class="cls-13" x="74.66" y="49.35">og</tspan><tspan class="cls-11" x="121.42" y="49.35">e</tspan><tspan class="cls-10" x="142" y="49.35">t</tspan><tspan class="cls-14" x="156.99" y="49.35">he</tspan><tspan class="cls-13" x="204.67" y="49.35">r</tspan><tspan class="cls-14" x="223.97" y="49.35">!</tspan></text>
  </g>
</svg>