<?xml version="1.0" encoding="UTF-8"?>
<svg id="Layer_2" xmlns="http://www.w3.org/2000/svg" viewBox="0 0 224.49 95.8">
  <defs>
    <style>
      .cls-1 {
        letter-spacing: 0em;
      }

      .cls-2 {
        stroke: #fff;
        stroke-miterlimit: 10;
      }

      .cls-2, .cls-3 {
        fill: #fff;
      }

      .cls-4 {
        letter-spacing: -.02em;
      }

      .cls-5 {
        letter-spacing: -.02em;
      }

      .cls-6 {
        letter-spacing: -.01em;
      }

      .cls-3 {
        font-family: Lato-Regular, Lato;
        font-size: 30px;
      }
    </style>
  </defs>
  <g id="Layer_2-2" data-name="Layer_2">
    <g>
      <text class="cls-3" transform="translate(101.1 25.75)"><tspan class="cls-1" x="0" y="0">O</tspan><tspan x="23.79" y="0">u</tspan><tspan class="cls-4" x="40.51" y="0">r</tspan><tspan class="cls-6" x="0" y="31">U</tspan><tspan x="21.61" y="31">nited</tspan><tspan class="cls-1" x="0" y="62">O</tspan><tspan x="23.79" y="62">ut</tspan><tspan class="cls-5" x="51.27" y="62">r</tspan><tspan x="61.57" y="62">each</tspan></text>
      <line class="cls-2" x1="95.57" y1="1.44" x2="95.57" y2="91.44"/>
      <g>
        <path class="cls-2" d="M29.54,27.24h5.11v18.83c.73-.16,1.44-.37,2.11-.64,1.66-.68,3.07-1.66,4.24-2.94,1.16-1.28,2.07-2.84,2.7-4.69.64-1.84.95-3.93.95-6.26s-.32-4.43-.95-6.28c-.64-1.85-1.53-3.42-2.7-4.7-1.16-1.28-2.58-2.26-4.24-2.95-1.66-.69-3.52-1.03-5.57-1.03s-3.88.34-5.54,1.03c-1.66.69-3.07,1.67-4.25,2.95-1.17,1.28-2.08,2.84-2.71,4.7-.64,1.85-.95,3.95-.95,6.28s.32,4.42.95,6.26c.64,1.84,1.54,3.41,2.71,4.69s2.59,2.26,4.25,2.94c1.2.49,2.49.79,3.88.93v-19.12Z"/>
        <path class="cls-2" d="M48.89,60.33c1.24-.53,2.28-1.27,3.14-2.23.86-.96,1.51-2.09,1.96-3.42.45-1.33.67-2.78.67-4.37v-2.98c-.14.05-.29.09-.43.15-1.66.69-3.08,1.67-4.25,2.95-1.17,1.28-2.08,2.84-2.71,4.7-.6,1.74-.9,3.71-.94,5.87.92-.12,1.78-.34,2.57-.68Z"/>
        <path class="cls-2" d="M45.5,1.44C20.65,1.44.5,21.59.5,46.44s20.15,45,45,45,45-20.15,45-45S70.35,1.44,45.5,1.44ZM77.14,69.24c-.9,2.38-2.17,4.42-3.81,6.13-1.64,1.71-3.61,3.04-5.92,3.98s-4.85,1.42-7.64,1.42-5.34-.48-7.63-1.42-4.26-2.27-5.91-3.98c-1.64-1.71-2.92-3.75-3.81-6.13-.47-1.23-.81-2.53-1.03-3.88-1.06-.19-2.07-.49-3.02-.88-1.87-.78-3.46-1.85-4.77-3.22-1.31-1.37-2.31-2.99-3.01-4.86-.64-1.72-.98-3.59-1.03-5.58-2.15-.15-4.15-.59-5.98-1.35-2.3-.94-4.26-2.27-5.91-3.98-1.64-1.71-2.92-3.75-3.81-6.13-.9-2.38-1.35-4.98-1.35-7.83s.45-5.45,1.35-7.83c.9-2.38,2.17-4.43,3.81-6.15,1.64-1.72,3.61-3.06,5.91-4.02,2.3-.95,4.84-1.43,7.63-1.43s5.34.48,7.64,1.43c2.3.95,4.28,2.3,5.92,4.02,1.64,1.72,2.92,3.77,3.81,6.15.9,2.38,1.35,4.98,1.35,7.83s-.45,5.45-1.35,7.83c-.9,2.38-2.17,4.42-3.81,6.13-1.64,1.71-3.61,3.04-5.92,3.98-1.31.54-2.71.9-4.19,1.14.03,1.46.24,2.82.66,4.04.45,1.33,1.11,2.47,1.96,3.42.85.95,1.91,1.7,3.16,2.24.21.09.44.17.66.24.08-2.51.51-4.83,1.32-6.96.9-2.38,2.17-4.43,3.81-6.15s3.61-3.06,5.91-4.02c.8-.33,1.65-.59,2.52-.81v-15.38h5.11v14.75c2.8,0,5.34.48,7.64,1.43,2.3.95,4.28,2.3,5.92,4.02,1.64,1.72,2.92,3.77,3.81,6.15.9,2.38,1.35,4.98,1.35,7.83s-.45,5.45-1.35,7.83Z"/>
        <path class="cls-2" d="M69.57,50.43c-1.16-1.28-2.58-2.26-4.24-2.95-1.65-.69-3.51-1.03-5.56-1.03v3.86c0,2.19-.35,4.22-1.05,6.09-.7,1.87-1.7,3.49-2.99,4.86s-2.89,2.44-4.75,3.22c-1.31.55-2.74.89-4.28,1.05.15.75.32,1.47.56,2.15.64,1.84,1.54,3.41,2.71,4.69s2.59,2.26,4.25,2.94c1.66.68,3.51,1.02,5.54,1.02s3.9-.34,5.57-1.02c1.66-.68,3.07-1.66,4.24-2.94s2.07-2.84,2.7-4.69c.64-1.84.95-3.93.95-6.26s-.32-4.43-.95-6.28c-.64-1.85-1.53-3.42-2.7-4.7Z"/>
      </g>
    </g>
  </g>
</svg>